<svg xmlns="http://www.w3.org/2000/svg" xmlns:xlink="http://www.w3.org/1999/xlink" width="50" height="50" viewBox="0 0 50 50">
  <defs>
    <clipPath id="clip-path">
      <rect id="Rectangle_462" data-name="Rectangle 462" width="50" height="50" rx="25" transform="translate(16 16)" fill="#adadad"/>
    </clipPath>
  </defs>
  <g id="Mask_Group_104" data-name="Mask Group 104" transform="translate(-16 -16)" clip-path="url(#clip-path)">
    <g id="Group_46" data-name="Group 46" transform="translate(16.066 16)">
      <g id="Group_16" data-name="Group 16" transform="translate(0)">
        <g id="Group_14" data-name="Group 14">
          <g id="Group_13" data-name="Group 13">
            <path id="Path_21" data-name="Path 21" d="M710.994,412.1a14.183,14.183,0,0,1-21.423,9.482l-7.864,2.205L684.416,416a14.192,14.192,0,1,1,26.578-9.068h10.911a25,25,0,1,0,0,5.167Z" transform="translate(-672.038 -384.513)" fill="#009394"/>
          </g>
        </g>
        <g id="Group_15" data-name="Group 15" transform="translate(18.018 18.086)">
          <path id="Path_22" data-name="Path 22" d="M709.231,413.034h-2.784V410.25a1.14,1.14,0,0,0-1.14-1.14h-3.7a1.14,1.14,0,0,0-1.14,1.14v2.784h-2.784a1.14,1.14,0,0,0-1.14,1.14v3.7a1.14,1.14,0,0,0,1.14,1.14h2.784V421.8a1.14,1.14,0,0,0,1.14,1.14h3.7a1.14,1.14,0,0,0,1.14-1.14v-2.784h2.784a1.14,1.14,0,0,0,1.14-1.14v-3.7A1.14,1.14,0,0,0,709.231,413.034Z" transform="translate(-696.543 -409.11)" fill="#009394"/>
        </g>
      </g>
    </g>
  </g>
</svg>
